<svg width="198" height="198" viewBox="0 0 198 198" fill="none" xmlns="http://www.w3.org/2000/svg">
<mask id="mask0_473_33890" style="mask-type:alpha" maskUnits="userSpaceOnUse" x="0" y="0" width="198" height="198">
<rect width="198" height="198" rx="98.5" fill="white"/>
</mask>
<g mask="url(#mask0_473_33890)">
<rect x="-3" y="-3" width="204" height="204" rx="20" fill="white"/>
<path d="M-3 98H201V180.518C201 191.563 192.046 200.518 181 200.518H17C5.9543 200.518 -3 191.563 -3 180.518V98Z" fill="#E60012"/>
<path d="M54.0122 70.3972C54.0122 76.8729 54.4934 77.2896 59.4178 77.6583V79.9985H38.6457V77.6583C43.3294 77.3057 43.8106 76.8729 43.8106 70.3972V65.2358C43.8106 63.3124 43.7465 62.9597 43.0888 61.453C41.8858 58.7601 39.7204 54.9773 35.6462 47.8444C33.4807 44.0135 32.7108 43.7089 30 43.3402V41H48.5425V43.3402L46.0883 43.6929C44.5806 43.9333 44.8212 44.5905 45.4307 45.8568C47.8367 50.7136 49.5049 54.1919 51.7987 58.4556C52.9375 56.1795 55.52 50.425 57.3807 46.1613C58.0383 44.6065 58.1667 43.757 56.0012 43.5807L53.4829 43.3402V41H67.9512V43.3402C64.5827 43.6929 63.5722 44.4142 61.5351 47.9566C59.3215 51.7875 57.3325 55.1536 55.2313 59.4173C54.2047 61.5171 54.0283 61.8697 54.0283 64.4023V70.3972H54.0122Z" fill="#E60012"/>
<path d="M73.8873 50.6189C73.8873 44.1432 73.4061 43.7265 69.38 43.3578V41.0176H97.8194C97.8835 42.0434 98.1722 46.4194 98.477 50.9075L95.8304 51.0838C95.2369 48.1505 94.5632 46.4674 93.6168 45.5057C92.6544 44.4798 90.6815 44.1272 87.4894 44.1272H86.4629C84.1852 44.1272 84.0568 44.1272 84.0568 46.227V57.7999H87.0564C92.2213 57.7999 92.3978 57.4473 92.9913 52.879H95.6379V67.0326H92.9913C92.3978 61.7591 92.2053 61.3904 87.0564 61.3904H84.0568V71.1681C84.0568 74.2938 84.1852 75.7845 85.2599 76.3295C86.2223 76.8103 87.6017 76.8744 89.4624 76.8744C91.8684 76.8744 94.499 76.5218 95.8304 75.0792C96.857 74.0052 97.8675 71.7772 98.7657 68.908L101.412 69.3248C101.108 72.2581 99.8565 78.3812 99.3111 80.0001H68.7705V77.6599C73.3901 77.3072 73.8713 76.8744 73.8713 70.3987V50.6029L73.8873 50.6189Z" fill="#E60012"/>
<path d="M118.173 71.1826C118.173 74.3083 118.285 75.7989 119.376 76.3439C120.339 76.8248 121.718 76.8889 123.579 76.8889C125.439 76.8889 128.086 76.7126 129.337 75.1418C130.3 74.0037 131.31 72.3848 132.273 69.211L134.855 69.6278C134.502 71.9039 133.235 78.1392 132.69 79.9985H102.919V77.6583C107.474 77.3057 107.956 76.8729 107.956 70.3972V50.6014C107.956 44.1257 107.474 43.7089 103.448 43.3402V41H122.953V43.3402C118.638 43.6929 118.157 44.1257 118.157 50.6014V71.1666L118.173 71.1826Z" fill="#E60012"/>
<path d="M151.072 71.1826C151.072 74.3083 151.2 75.7989 152.275 76.3439C153.237 76.8248 154.617 76.8889 156.477 76.8889C158.338 76.8889 160.985 76.7126 162.236 75.1418C163.198 74.0037 164.209 72.3848 165.171 69.211L167.753 69.6278C167.401 71.9039 166.133 78.1392 165.588 79.9985H135.817V77.6583C140.373 77.3057 140.854 76.8729 140.854 70.3972V50.6014C140.854 44.1257 140.373 43.7089 136.347 43.3402V41H155.852V43.3402C151.537 43.6929 151.056 44.1257 151.056 50.6014V71.1666L151.072 71.1826Z" fill="#E60012"/>
<path d="M54.605 159C54.2967 157.05 54.1939 155.1 54.1939 152.329V143.76H64.0085C68.9415 143.76 72.4357 142.579 74.9535 140.065C77.2145 137.705 78.3964 134.523 78.3964 130.623C78.3964 126.929 77.3173 123.85 75.2105 121.797C72.744 119.334 69.2498 118.154 64.2654 118.154H53.5259C50.8025 118.154 49.2096 118.103 47 118C47.3083 120.309 47.4111 122.156 47.4111 124.62V152.38C47.4111 155.151 47.3083 156.947 47 159H54.605ZM54.1939 137.859V124.055H64.0085C66.7319 124.055 68.4276 124.62 69.6095 125.902C70.74 127.083 71.3052 128.776 71.3052 130.829C71.3052 135.344 68.7359 137.859 64.0085 137.859H54.1939Z" fill="white"/>
<path d="M118.033 159C117.314 157.666 116.697 156.229 115.413 152.945L104.005 123.337C102.823 120.207 102.515 119.385 102.258 118.154H93.3169C93.06 119.488 92.6489 120.771 91.6726 123.337L80.3679 152.945C79.4429 155.305 78.4152 157.615 77.6444 159H86.0716C86.4827 156.845 86.6882 156.075 87.6132 153.612L89.6686 148.019H106.112L108.167 153.612C108.732 155.1 109.298 157.307 109.606 159H118.033ZM104.262 142.118H91.5184L96.8625 126.929C97.0167 126.467 97.0167 126.467 97.8388 124.055C98.4041 125.748 98.5582 126.364 98.7638 126.929L104.262 142.118Z" fill="white"/>
<path d="M136.546 159C136.237 157.05 136.134 154.946 136.134 152.38V142.272L148.004 123.439C148.878 122.003 150.831 119.18 151.55 118.154H142.609C142.249 119.488 141.479 121.028 140.194 123.234L132.64 135.806L125.189 123.183C123.802 120.925 123.134 119.539 122.723 118.154H113.73C115.375 120.514 116.557 122.208 117.327 123.439L129.197 142.22V152.38C129.197 154.997 129.043 157.05 128.786 159H136.546Z" fill="white"/>
</g>
</svg>
